<?xml version="1.0" encoding="UTF-8"?>
<svg xmlns="http://www.w3.org/2000/svg" xmlns:xlink="http://www.w3.org/1999/xlink" width="250pt" height="234pt" viewBox="0 0 250 234" version="1.1">
<g id="surface1">
<path style=" stroke:none;fill-rule:nonzero;fill:rgb(0%,0%,0%);fill-opacity:1;" d="M 118.515625 10.675781 C 110.964844 11.015625 102.015625 12.289062 95.566406 13.921875 C 92.867188 14.625 92.605469 14.625 81.335938 14.808594 C 75.03125 14.910156 68.4375 15.015625 66.664062 15.039062 L 63.46875 15.066406 L 46.183594 29.898438 C 36.6875 38.054688 24.574219 48.417969 19.289062 52.9375 C 14 57.457031 9.671875 61.171875 9.703125 61.171875 C 9.730469 61.199219 16.820312 61.148438 25.476562 61.09375 L 41.191406 60.992188 L 50.628906 54.183594 C 55.800781 50.472656 63.265625 45.097656 67.15625 42.261719 C 71.082031 39.457031 74.480469 37.148438 74.710938 37.148438 C 75.324219 37.148438 75.875 37.769531 75.671875 38.234375 C 75.582031 38.417969 71.691406 41.324219 67.042969 44.675781 C 62.367188 48.03125 55.394531 53.066406 51.558594 55.875 L 44.527344 60.9375 L 51.238281 60.863281 C 54.929688 60.808594 63.878906 60.757812 71.082031 60.707031 L 84.238281 60.628906 L 86.476562 58.679688 C 87.726562 57.617188 94.957031 51.433594 102.539062 44.9375 C 110.121094 38.445312 121.15625 28.964844 127.054688 23.898438 L 137.777344 14.675781 L 136.785156 14.519531 C 135.917969 14.363281 136.003906 14.335938 137.339844 14.3125 C 138.414062 14.285156 138.851562 14.390625 138.851562 14.625 C 138.851562 14.808594 137.3125 16.3125 135.421875 17.949219 C 132.140625 20.804688 106.636719 43.25 92.082031 56.054688 L 84.964844 62.339844 L 63.90625 62.160156 L 42.84375 62.003906 L 41.015625 63.355469 C 40 64.109375 39.128906 64.863281 39.042969 65.042969 C 38.953125 65.226562 39.359375 75.25 39.941406 87.304688 C 40.492188 99.359375 40.957031 109.433594 40.957031 109.671875 C 40.957031 109.929688 41.128906 110.136719 41.367188 110.136719 C 42.089844 110.136719 43.542969 111.4375 43.832031 112.371094 C 44.296875 113.90625 43.484375 115.566406 41.742188 116.503906 C 41.304688 116.734375 41.394531 117.511719 42.816406 125.464844 C 44.472656 134.734375 44.472656 134.996094 42.992188 134.710938 C 42.554688 134.632812 42.0625 134.710938 41.886719 134.863281 C 41.65625 135.074219 41.367188 135.074219 40.898438 134.890625 C 40.433594 134.710938 40.085938 134.710938 39.765625 134.890625 C 39.503906 135.050781 39.042969 135.074219 38.75 134.941406 C 38.429688 134.839844 37.761719 134.761719 37.238281 134.789062 C 36.394531 134.839844 36.3125 134.789062 36.3125 134.0625 C 36.3125 133.644531 36.976562 129.566406 37.761719 125.019531 L 39.214844 116.761719 L 38.578125 116.320312 C 38.199219 116.0625 37.820312 115.851562 37.703125 115.851562 C 37.238281 115.851562 36.601562 114.242188 36.601562 113.097656 C 36.601562 112.085938 36.746094 111.773438 37.558594 111.070312 C 38.054688 110.605469 38.632812 110.164062 38.808594 110.113281 C 39.042969 110.035156 38.808594 103.875 38.023438 88.449219 C 37.414062 76.574219 36.921875 66.261719 36.890625 65.535156 C 36.890625 64.214844 36.921875 64.160156 38.371094 63.121094 L 39.855469 62.082031 L 32.300781 62.082031 C 26.636719 62.082031 24.691406 62.160156 24.457031 62.394531 C 23.847656 63.070312 19.722656 70.394531 18.328125 73.253906 C 7.027344 96.835938 5.78125 122.890625 14.8125 147.023438 C 27.945312 182.167969 61.347656 208.613281 101.925781 215.988281 C 103.902344 216.351562 105.589844 216.585938 105.648438 216.535156 C 105.707031 216.484375 105.96875 209.027344 106.199219 199.988281 C 106.429688 190.921875 106.695312 182.894531 106.78125 182.144531 L 106.925781 180.789062 L 111.515625 180.789062 L 111.601562 176.6875 L 111.6875 172.609375 L 115.4375 172.480469 L 119.210938 172.351562 L 120.464844 167.023438 C 121.15625 164.085938 121.652344 161.542969 121.566406 161.359375 C 121.507812 161.179688 116.976562 155.410156 111.515625 148.554688 C 102.046875 136.660156 101.613281 136.035156 101.753906 135.152344 C 101.902344 134.398438 101 131.59375 97.398438 121.386719 C 93.332031 109.878906 92.898438 108.503906 93.246094 107.929688 C 93.535156 107.4375 93.59375 105.125 93.476562 97.152344 L 93.332031 86.992188 L 94.058594 86.472656 C 95.539062 85.433594 97.921875 86.058594 98.878906 87.746094 C 99.113281 88.1875 99.34375 89.929688 99.488281 92.34375 C 99.605469 94.476562 99.777344 96.734375 99.894531 97.355469 L 100.070312 98.472656 L 103.207031 94.085938 C 104.921875 91.667969 106.664062 89.433594 107.042969 89.097656 C 109.160156 87.304688 112.503906 89.746094 112.039062 92.707031 C 111.949219 93.226562 110.527344 95.796875 108.816406 98.527344 C 107.128906 101.230469 105.851562 103.382812 105.96875 103.332031 C 106.113281 103.28125 109.136719 101.644531 112.679688 99.640625 C 118.488281 96.394531 119.183594 96.058594 119.820312 96.320312 C 120.925781 96.785156 121.539062 97.851562 121.539062 99.332031 C 121.539062 101.644531 121.21875 101.902344 113.519531 106.371094 C 109.628906 108.632812 106.054688 110.734375 105.558594 111.019531 L 104.660156 111.566406 L 106.230469 115.722656 L 106.636719 114.058594 L 107.042969 112.371094 L 115.757812 109.203125 C 120.550781 107.4375 124.734375 106.007812 125.082031 106.007812 C 125.398438 105.980469 126.039062 106.34375 126.53125 106.785156 C 127.523438 107.695312 127.636719 109.125 126.882812 110.65625 C 126.503906 111.460938 125.921875 111.800781 122.261719 113.488281 C 119.96875 114.554688 117.933594 115.515625 117.761719 115.617188 C 117.382812 115.902344 119.53125 127.828125 120.027344 128.085938 C 120.839844 128.53125 134.808594 132.789062 134.988281 132.632812 C 135.074219 132.554688 135.652344 129.722656 136.265625 126.375 C 137.136719 121.4375 137.484375 120.058594 138.066406 119.175781 C 139.894531 116.425781 143.121094 114.996094 146.515625 115.4375 C 148.753906 115.75 148.839844 115.878906 148.117188 118.578125 C 147.535156 120.734375 147.449219 121.902344 147.273438 132.738281 C 147.070312 144.089844 147.042969 144.660156 146.316406 147.410156 C 145.53125 150.53125 144.515625 153.125 143.523438 154.558594 C 142.945312 155.441406 142.914062 155.75 142.914062 163.648438 C 142.914062 168.140625 143.03125 171.960938 143.148438 172.144531 C 143.292969 172.351562 144.457031 172.480469 146.546875 172.53125 L 149.742188 172.609375 L 149.832031 176.6875 L 149.917969 180.789062 L 152.210938 180.789062 C 153.488281 180.789062 154.535156 180.816406 154.5625 180.84375 C 154.5625 180.898438 154.796875 188.375 155.089844 197.46875 C 155.351562 206.558594 155.636719 214.09375 155.753906 214.171875 C 155.988281 214.378906 163.367188 212.222656 167.808594 210.636719 C 204.382812 197.652344 231.511719 168.246094 238.890625 133.644531 C 240.433594 126.398438 240.664062 123.878906 240.664062 114.292969 C 240.664062 105.175781 240.546875 103.824219 239.328125 97.152344 C 233.75 66.785156 212.253906 39.328125 182.132812 24.105469 C 165.953125 15.894531 149.277344 11.558594 130.570312 10.652344 C 124.875 10.363281 124.675781 10.390625 118.515625 10.675781 Z M 196.65625 39.484375 C 202.085938 42.003906 205.660156 51.484375 202.175781 54.109375 C 201.738281 54.445312 196.421875 57.617188 190.351562 61.199219 C 184.25 64.757812 179.34375 67.71875 179.371094 67.796875 C 179.429688 67.871094 182.335938 69.148438 185.878906 70.65625 C 189.394531 72.136719 192.125 73.460938 191.921875 73.539062 C 191.714844 73.640625 189.800781 73.847656 187.652344 74.03125 C 185.5 74.210938 183.527344 74.449219 183.265625 74.578125 C 183.035156 74.679688 182.335938 75.980469 181.695312 77.460938 C 181.085938 78.941406 180.503906 80.238281 180.359375 80.34375 C 180.242188 80.472656 178.09375 79.171875 175.566406 77.484375 C 173.007812 75.769531 170.597656 74.1875 170.195312 73.929688 L 169.40625 73.484375 L 151.195312 84.1875 C 131.09375 95.980469 131.789062 95.644531 129.179688 94.550781 C 126.300781 93.332031 122.902344 89.019531 121.828125 85.277344 C 121.277344 83.226562 121.539062 82.628906 123.6875 81.199219 L 125.253906 80.160156 L 123.65625 79.613281 C 122.757812 79.332031 121.972656 79.019531 121.914062 78.964844 C 121.828125 78.890625 129.117188 74.679688 138.09375 69.589844 C 147.042969 64.5 162.84375 55.539062 173.15625 49.667969 C 183.496094 43.820312 192.179688 38.964844 192.472656 38.886719 C 193.371094 38.648438 195.550781 38.988281 196.65625 39.484375 Z M 194.417969 92.5 C 196.828125 93.199219 198.660156 94.289062 200.460938 96.058594 L 201.941406 97.515625 L 204.902344 97.515625 C 207.632812 97.539062 207.984375 97.589844 209.785156 98.398438 C 213.5625 100.058594 215.625 103.070312 215.625 106.890625 C 215.625 110.734375 213.589844 113.722656 209.785156 115.382812 C 208.011719 116.164062 207.632812 116.242188 205.050781 116.242188 C 202.40625 116.242188 202.144531 116.191406 200.167969 115.28125 L 198.105469 114.34375 L 196.421875 115.074219 C 192.269531 116.941406 187.445312 116.8125 183.320312 114.761719 L 181.78125 113.984375 L 180.851562 114.785156 C 179.605469 115.878906 178.09375 116.371094 176.117188 116.371094 C 173.9375 116.34375 172.402344 115.722656 170.917969 114.214844 C 168.59375 111.851562 168.476562 108.65625 170.628906 106.109375 C 171.46875 105.152344 173.738281 104.007812 175.332031 103.773438 L 176.523438 103.617188 L 176.699219 102.1875 C 177.019531 99.359375 179.402344 95.925781 182.246094 94.160156 C 185.761719 92.003906 190.554688 91.332031 194.417969 92.5 Z M 77.910156 131.386719 C 80.871094 132.6875 82.988281 135.253906 83.511719 138.113281 C 83.6875 139.101562 83.777344 139.207031 84.761719 139.359375 C 88.21875 139.90625 90.105469 143.230469 88.625 146.140625 C 87.261719 148.816406 83.457031 149.648438 80.636719 147.882812 L 79.445312 147.128906 L 77.730469 147.933594 C 76.191406 148.632812 75.753906 148.710938 73.375 148.710938 C 71.109375 148.710938 70.5 148.605469 69.046875 148.011719 L 67.390625 147.308594 L 65.910156 147.984375 C 61.902344 149.855469 56.816406 148.375 54.871094 144.761719 C 53.96875 143.074219 53.941406 140.375 54.785156 138.710938 C 56.148438 136.058594 59.054688 134.476562 62.394531 134.582031 L 64.398438 134.632812 L 65.648438 133.4375 C 67.972656 131.152344 70.09375 130.371094 73.636719 130.476562 C 75.613281 130.527344 76.28125 130.660156 77.910156 131.386719 Z M 77.910156 131.386719 "/>
</g>
</svg>
